<?xml version="1.0" encoding="UTF-8" standalone="no"?>
<svg viewBox="0 0 998 998" version="1.1" xmlns="http://www.w3.org/2000/svg" xmlns:xlink="http://www.w3.org/1999/xlink"><g stroke="none" stroke-width="1" fill="none" fill-rule="evenodd"><path d="M595,499 L988,106 C994.666667,99.3333333 998,91.6666667 998,83 C998,74.3333333 994.666667,66.6666667 988,60 L938,10 C931.333333,3.33333333 923.666667,0 915,0 C906.333333,0 898.666667,3.33333333 892,10 L499,403 L106,10 C99.3333333,3.33333333 91.6666667,0 83,0 C74.3333333,0 66.6666667,3.33333333 60,10 L10,60 C3.33333333,66.6666667 0,74.3333333 0,83 C0,91.6666667 3.33333333,99.3333333 10,106 L403,499 L10,892 C3.33333333,898.666667 0,906.333333 0,915 C0,923.666667 3.33333333,931.333333 10,938 L60,988 C66.6666667,994.666667 74.3333333,998 83,998 C91.6666667,998 99.3333333,994.666667 106,988 L499,595 L892,988 C898.666667,994.666667 906.333333,998 915,998 C923.666667,998 931.333333,994.666667 938,988 L988,938 C994.666667,931.333333 998,923.666667 998,915 C998,906.333333 994.666667,898.666667 988,892 L595,499 Z" fill="#FFFFFF"></path></g></svg>